<?xml version="1.0" encoding="UTF-8" standalone="no"?>
<svg
   id="Layer_1"
   strokeWidth="0"
   version="1.1"
   viewBox="0 0 81.944444 77.219384"
   x="0px"
   xmlnsXlink="http://www.w3.org/1999/xlink"
   xmlSpace="preserve"
   y="0px"
   width="81.944443"
   height="77.219383"
   xmlns="http://www.w3.org/2000/svg"
   xmlns:svg="http://www.w3.org/2000/svg">
  <style
     type="text/css"
     id="style1">.st0--odyseeLogo{fill:url(#SVGID_1_);}.st1--odyseeLogo{fill:#FFFFFF;}</style>
  <linearGradient
     id="SVGID_1_"
     gradientUnits="userSpaceOnUse"
     x1="37.1511"
     y1="1.7925"
     x2="79.909203"
     y2="149.7319">
    <stop
       offset="0"
       style="stop-color: #EF1970;"
       id="stop1" />
    <stop
       offset="0.1438"
       style="stop-color: #F23B5C;"
       id="stop2" />
    <stop
       offset="0.445"
       style="stop-color: #F77D35;"
       id="stop3" />
    <stop
       offset="0.6983"
       style="stop-color: #FCAD18;"
       id="stop4" />
    <stop
       offset="0.8909"
       style="stop-color: #FECB07;"
       id="stop5" />
    <stop
       offset="1"
       style="stop-color: #FFD600;"
       id="stop6" />
  </linearGradient>
  <defs
     id="defs6" />
  <clipPath
     id="SVGID_00000173159025839821803030000017583277320152650913_">
    <use
       xlinkHref="#SVGID_00000170984886341847456420000000262070696033326467_"
       style="overflow:visible"
       id="use6" />
  </clipPath>
  <g
     id="layer2"
     transform="translate(-7.2555556,-12.6)">
    <g
       id="g9">
      <g
         id="g8">
        <g
           id="g7">
          <path
             class="st1--odyseeLogo"
             d="M 8.7,40.1 C 9.2,39.8 9.3,39.2 9,38.8 8.7,38.4 8.1,38.2 7.7,38.5 c -0.4,0.3 -0.6,0.9 -0.3,1.3 0.3,0.5 0.9,0.7 1.3,0.3 z M 64.8,15 c 0.5,-0.3 0.6,-0.8 0.3,-1.3 -0.3,-0.4 -0.9,-0.6 -1.3,-0.3 -0.4,0.3 -0.6,0.9 -0.3,1.3 0.3,0.4 0.9,0.6 1.3,0.3 z m 11.9,36.4 c -0.1,0.6 0.2,1.2 0.8,1.3 0.6,0.1 1.2,-0.2 1.3,-0.8 0.1,-0.6 -0.2,-1.2 -0.8,-1.3 -0.6,-0.1 -1.1,0.2 -1.3,0.8 z M 60.9,88.2 c -0.4,-0.2 -0.8,0.1 -1,0.6 -0.1,0.5 0.2,0.9 0.6,1 0.5,0.1 0.9,-0.2 1,-0.6 0.2,-0.5 -0.1,-0.9 -0.6,-1 z m -45.8,-68 c 0.3,0.1 0.6,-0.1 0.6,-0.4 0.1,-0.3 -0.1,-0.6 -0.4,-0.6 -0.3,0 -0.6,0.1 -0.6,0.4 -0.1,0.3 0.1,0.6 0.4,0.6 z m 3.2,50.1 c -0.4,0.1 -0.7,0.4 -0.6,0.8 0.1,0.4 0.4,0.7 0.8,0.6 0.4,0 0.6,-0.4 0.6,-0.8 C 19,70.5 18.7,70.2 18.3,70.3 Z M 85.5,36 l -0.6,2.6 -2.3,1.1 2.6,0.6 1.1,2.3 0.6,-2.6 2.3,-1.1 -2.6,-0.6 z M 51.3,18.7 c -0.6,0.2 -0.8,0.8 -0.6,1.4 0.5,1.2 0.5,1.8 0.3,3 -0.1,0.6 0.3,1.2 0.9,1.3 0.1,0 0.1,0 0.2,0 0.5,0 1,-0.4 1,-0.9 0.4,-1.6 0.2,-2.7 -0.4,-4.2 -0.1,-0.6 -0.8,-0.8 -1.4,-0.6 z m -0.5,-4.3 c -0.5,-1 -0.9,-1.4 -1,-1.5 -0.4,-0.4 -1.1,-0.4 -1.5,0 -0.4,0.4 -0.4,1.1 0,1.5 0,0 0.2,0.2 0.6,1 0.2,0.4 0.6,0.6 1,0.6 0.1,0 0.3,0 0.5,-0.1 0.5,-0.3 0.7,-1 0.4,-1.5 z"
             id="path7" />
        </g>
      </g>
    </g>
  </g>
</svg>
