<?xml version="1.0" encoding="UTF-8" standalone="no"?>
<svg
   id="Layer_1"
   strokeWidth="0"
   version="1.1"
   viewBox="0 0 90.092508 96.185884"
   x="0px"
   xmlnsXlink="http://www.w3.org/1999/xlink"
   xmlSpace="preserve"
   y="0px"
   width="90.092506"
   height="96.185883"
   xmlns="http://www.w3.org/2000/svg"
   xmlns:svg="http://www.w3.org/2000/svg">
  <style
     type="text/css"
     id="style1">.st0--odyseeLogo{fill:url(#SVGID_1_);}.st1--odyseeLogo{fill:#FFFFFF;}</style>
  <linearGradient
     id="SVGID_1_"
     gradientUnits="userSpaceOnUse"
     x1="37.1511"
     y1="1.7925"
     x2="79.909203"
     y2="149.7319">
    <stop
       offset="0"
       style="stop-color: #EF1970;"
       id="stop1" />
    <stop
       offset="0.1438"
       style="stop-color: #F23B5C;"
       id="stop2" />
    <stop
       offset="0.445"
       style="stop-color: #F77D35;"
       id="stop3" />
    <stop
       offset="0.6983"
       style="stop-color: #FCAD18;"
       id="stop4" />
    <stop
       offset="0.8909"
       style="stop-color: #FECB07;"
       id="stop5" />
    <stop
       offset="1"
       style="stop-color: #FFD600;"
       id="stop6" />
  </linearGradient>
  <defs
     id="defs6" />
  <clipPath
     id="SVGID_00000173159025839821803030000017583277320152650913_">
    <use
       xlinkHref="#SVGID_00000170984886341847456420000000262070696033326467_"
       style="overflow:visible"
       id="use6" />
  </clipPath>
  <g
     id="layer3"
     transform="translate(0.72375474,-4.029785)">
    <g
       id="g12">
      <g
         id="g11">
        <g
           id="g10">
          <path
             id="spaceman"
             class="st1--odyseeLogo"
             d="M 89.2,85.1 C 87.9,79.3 86.1,74.2 83.1,66.6 81.1,61.4 74.3,55 70,51.8 68.4,50.6 68.3,48.4 69.7,46.9 74,42.9 81.6,35 84,30.8 85.6,27.9 88.7,22.3 88.9,17.5 89.2,14 88.7,9.9 84,8 79.7,6.3 76.9,8.9 76.9,8.9 c -3,2.1 -3.9,7.7 -6.1,13.3 -2.4,6.5 -6.3,7.3 -8.3,7.3 -1.9,0 -0.7,-2.1 -5.4,-15.6 C 52.4,0.5 40.1,2.9 30.8,8.5 19,15.6 24.2,30.6 27.2,40.4 c -1.6,1.6 -7.9,2.8 -13.5,5.9 -3.5,1.9 -6.5,3.1 -9.5,5.5 -4.1,3.3 -5.9,7 -4.4,12.1 0.3,1.1 1.4,2.9 3.6,4.1 3.3,1.5 8.3,-0.7 15.8,-6.3 5.5,-3.7 11.9,-5.6 11.9,-5.6 0,0 4.6,7 8.8,15.3 4.2,8.3 -4.6,11 -5.5,11 -1,0 -14.8,-1.3 -11.6,10.4 3,11.6 19.9,7.5 28.5,1.8 8.6,-5.7 6.5,-24.2 6.5,-24.2 8.4,-1.3 11,7.6 11.8,12.1 0.8,4.5 -1,12.4 7.5,12.6 1.2,0 2.4,-0.2 3.5,-0.5 4.6,-1.1 7.2,-3.4 8.3,-5.8 0.5,-1.2 0.6,-2.5 0.3,-3.7 z m -42.3,-55 c -8.6,3.2 -12.7,-1 -13.2,-8.8 -0.6,-8.8 7.6,-11 7.6,-11 9.1,-3 11.5,1.3 13.7,7.8 2,6.5 0.4,8.8 -8.1,12 z" />
        </g>
      </g>
    </g>
  </g>
</svg>
