<?xml version="1.0" encoding="utf-8"?>
<!-- Generator: Adobe Illustrator 21.1.0, SVG Export Plug-In . SVG Version: 6.00 Build 0)  -->
<svg version="1.1" id="Layer_1" xmlns="http://www.w3.org/2000/svg" xmlns:xlink="http://www.w3.org/1999/xlink" x="0px" y="0px"
	 viewBox="0 0 130.3 138.8" style="enable-background:new 0 0 130.3 138.8;" xml:space="preserve">
<style type="text/css">
	.st0{fill:#FFFFFF;}
</style>
<g>
	<g>
		<path class="st0" d="M74.9,23.3c-0.8,0.3-1.1,1.1-0.8,2c0.7,1.7,0.7,2.5,0.4,4.2c-0.1,0.8,0.4,1.7,1.3,1.8c0.1,0,0.1,0,0.3,0
			c0.7,0,1.4-0.6,1.4-1.3c0.6-2.2,0.3-3.8-0.6-5.9C76.6,23.3,75.7,23,74.9,23.3z M74.2,17.3c-0.7-1.4-1.3-2-1.4-2.1
			c-0.6-0.6-1.5-0.6-2.1,0s-0.6,1.5,0,2.1c0,0,0.3,0.3,0.8,1.4c0.3,0.6,0.8,0.8,1.4,0.8c0.1,0,0.4,0,0.7-0.1
			C74.3,19,74.6,18,74.2,17.3z M127.3,115.1c-1.8-8.1-4.3-15-8.4-25.6c-2.8-7.2-12.1-16-18.1-20.5c-2.2-1.7-2.4-4.8-0.4-6.7
			c5.9-5.6,16.4-16.5,19.7-22.2c2.2-4,6.6-11.7,6.8-18.3c0.4-4.9-0.2-10.6-6.8-13.3c-5.9-2.4-9.9,1.3-9.9,1.3
			c-4.1,2.9-5.5,10.7-8.4,18.4c-3.4,9-8.7,10.1-11.5,10.1c-2.7,0-1-3-7.4-21.6S59.4,1.5,46.5,9.2c-16.4,9.8-9.1,30.6-5,44
			c-2.2,2.2-10.9,3.9-18.7,8.1c-4.9,2.6-9,4.3-13.1,7.6C4,73.5,1.6,78.6,3.5,85.6c0.4,1.5,1.9,4,5,5.7c4.6,2.1,11.4-1,21.8-8.8
			c7.5-5.2,16.5-7.7,16.5-7.7s6.3,9.6,12.2,21.1c5.9,11.5-6.3,15.2-7.5,15.2c-1.4,0-20.4-1.8-16.1,14.4c4.2,16.1,27.5,10.3,39.4,2.5
			s8.9-33.4,8.9-33.4c11.6-1.8,15.2,10.5,16.4,16.8s-1.4,17.2,10.3,17.5c1.7,0,3.4-0.3,4.9-0.7c6.3-1.5,10-4.6,11.5-8
			C127.5,118.6,127.6,116.8,127.3,115.1z M68.8,39.1C56.9,43.6,51.1,37.7,50.4,27c-0.8-12.2,10.5-15.2,10.5-15.2
			c12.6-4.2,15.9,1.8,18.9,10.8S80.5,34.6,68.8,39.1z"/>
	</g>
</g>
</svg>
